<?xml version="1.0" standalone="no"?>
<!DOCTYPE svg PUBLIC "-//W3C//DTD SVG 20010904//EN"
 "http://www.w3.org/TR/2001/REC-SVG-20010904/DTD/svg10.dtd">
<svg version="1.0" xmlns="http://www.w3.org/2000/svg"
 width="160.000000pt" height="160.000000pt" viewBox="0 0 160.000000 160.000000"
 preserveAspectRatio="xMidYMid meet">
<metadata>
Created by potrace 1.14, written by Peter Selinger 2001-2017
</metadata>
<g transform="translate(0.000000,160.000000) scale(0.100000,-0.100000)"
fill="#000000" stroke="none">
<path d="M717 1583 c-2 -1 -45 -5 -97 -8 -95 -6 -130 -10 -183 -21 -48 -10
-54 -44 -51 -264 6 -470 21 -880 39 -1130 1 -19 3 -47 4 -62 0 -14 12 -40 26
-56 19 -23 31 -29 57 -26 73 6 131 14 147 18 9 3 30 8 46 10 17 3 44 8 60 12
50 10 272 73 302 86 15 6 33 12 38 14 60 14 88 44 92 99 12 164 25 668 27
1002 1 326 5 313 -91 320 -64 4 -413 10 -416 6z"/>
</g>
</svg>
